<svg width="18" height="17" viewBox="0 0 18 17" fill="none" xmlns="http://www.w3.org/2000/svg">
<path d="M17.0625 6.5C17.0625 6.74864 16.9637 6.9871 16.7879 7.16291C16.6121 7.33873 16.3736 7.4375 16.125 7.4375H15.1875V8.375C15.1875 8.62364 15.0887 8.8621 14.9129 9.03791C14.7371 9.21373 14.4986 9.3125 14.25 9.3125C14.0014 9.3125 13.7629 9.21373 13.5871 9.03791C13.4113 8.8621 13.3125 8.62364 13.3125 8.375V7.4375H12.375C12.1264 7.4375 11.8879 7.33873 11.7121 7.16291C11.5363 6.9871 11.4375 6.74864 11.4375 6.5C11.4375 6.25136 11.5363 6.0129 11.7121 5.83709C11.8879 5.66127 12.1264 5.5625 12.375 5.5625H13.3125V4.625C13.3125 4.37636 13.4113 4.1379 13.5871 3.96209C13.7629 3.78627 14.0014 3.6875 14.25 3.6875C14.4986 3.6875 14.7371 3.78627 14.9129 3.96209C15.0887 4.1379 15.1875 4.37636 15.1875 4.625V5.5625H16.125C16.3736 5.5625 16.6121 5.66127 16.7879 5.83709C16.9637 6.0129 17.0625 6.25136 17.0625 6.5ZM9.24999 3.6875H9.56249V4C9.56249 4.24864 9.66126 4.4871 9.83708 4.66291C10.0129 4.83873 10.2514 4.9375 10.5 4.9375C10.7486 4.9375 10.9871 4.83873 11.1629 4.66291C11.3387 4.4871 11.4375 4.24864 11.4375 4V3.6875H11.75C11.9986 3.6875 12.2371 3.58873 12.4129 3.41291C12.5887 3.2371 12.6875 2.99864 12.6875 2.75C12.6875 2.50136 12.5887 2.2629 12.4129 2.08709C12.2371 1.91127 11.9986 1.8125 11.75 1.8125H11.4375V1.5C11.4375 1.25136 11.3387 1.0129 11.1629 0.837087C10.9871 0.661272 10.7486 0.5625 10.5 0.5625C10.2514 0.5625 10.0129 0.661272 9.83708 0.837087C9.66126 1.0129 9.56249 1.25136 9.56249 1.5V1.8125H9.24999C9.00135 1.8125 8.7629 1.91127 8.58708 2.08709C8.41126 2.2629 8.31249 2.50136 8.31249 2.75C8.31249 2.99864 8.41126 3.2371 8.58708 3.41291C8.7629 3.58873 9.00135 3.6875 9.24999 3.6875ZM15.1726 10.7484C15.2812 10.8745 15.3543 11.0272 15.3844 11.1909C15.4145 11.3545 15.4004 11.5232 15.3437 11.6797C14.8923 12.9118 14.1378 14.0103 13.1498 14.8739C12.1618 15.7375 10.9723 16.3383 9.69088 16.6209C8.40948 16.9036 7.07754 16.8589 5.81797 16.491C4.55839 16.1232 3.41177 15.4439 2.48391 14.5161C1.55605 13.5882 0.87684 12.4416 0.50897 11.182C0.1411 9.92245 0.0964178 8.59051 0.379046 7.30911C0.661674 6.02772 1.26251 4.83815 2.1261 3.85019C2.98969 2.86223 4.08822 2.10771 5.3203 1.65625C5.47652 1.59917 5.6451 1.58468 5.80877 1.61426C5.97243 1.64384 6.12528 1.71643 6.25163 1.82457C6.37799 1.93271 6.4733 2.07253 6.52779 2.22966C6.58228 2.3868 6.59399 2.5556 6.56171 2.71875C6.47897 3.14081 6.43737 3.5699 6.43749 4C6.43935 5.73991 7.13136 7.40803 8.36166 8.63833C9.59196 9.86864 11.2601 10.5606 13 10.5625C13.4293 10.5624 13.8576 10.5208 14.2789 10.4383C14.442 10.4061 14.6107 10.4179 14.7678 10.4724C14.9248 10.5269 15.0646 10.6221 15.1726 10.7484ZM12.8437 12.4375C10.6608 12.3949 8.57904 11.5087 7.03515 9.96485C5.49125 8.42095 4.60509 6.33924 4.56249 4.15625C3.85988 4.65705 3.27486 5.30496 2.84815 6.05488C2.42144 6.8048 2.1633 7.63871 2.09171 8.49856C2.02011 9.3584 2.13677 10.2235 2.43357 11.0337C2.73037 11.8439 3.20017 12.5796 3.81028 13.1897C4.42039 13.7998 5.15613 14.2696 5.9663 14.5664C6.77647 14.8632 7.64159 14.9799 8.50143 14.9083C9.36128 14.8367 10.1952 14.5785 10.9451 14.1518C11.695 13.7251 12.3429 13.1401 12.8437 12.4375Z" fill="#846F2E"/>
</svg>
