<svg width="20" height="15" viewBox="0 0 20 15" fill="none" xmlns="http://www.w3.org/2000/svg">
<path d="M18.75 9.5625H15.9289C15.9344 9.4586 15.9375 9.35469 15.9375 9.25C15.9375 7.67528 15.3119 6.16505 14.1984 5.05156C13.0849 3.93806 11.5747 3.3125 10 3.3125C8.42528 3.3125 6.91505 3.93806 5.80155 5.05156C4.68806 6.16505 4.0625 7.67528 4.0625 9.25C4.0625 9.35469 4.0625 9.4586 4.07109 9.5625H1.25C1.00136 9.5625 0.762903 9.66128 0.587087 9.83709C0.411272 10.0129 0.3125 10.2514 0.3125 10.5C0.3125 10.7486 0.411272 10.9871 0.587087 11.1629C0.762903 11.3387 1.00136 11.4375 1.25 11.4375H18.75C18.9986 11.4375 19.2371 11.3387 19.4129 11.1629C19.5887 10.9871 19.6875 10.7486 19.6875 10.5C19.6875 10.2514 19.5887 10.0129 19.4129 9.83709C19.2371 9.66128 18.9986 9.5625 18.75 9.5625ZM5.9375 9.25C5.9375 8.17256 6.36551 7.13925 7.12738 6.37738C7.88925 5.61551 8.92256 5.1875 10 5.1875C11.0774 5.1875 12.1108 5.61551 12.8726 6.37738C13.6345 7.13925 14.0625 8.17256 14.0625 9.25C14.0625 9.35469 14.057 9.4586 14.0492 9.5625H5.95078C5.94297 9.4586 5.9375 9.35469 5.9375 9.25ZM17.1875 13.625C17.1875 13.8736 17.0887 14.1121 16.9129 14.2879C16.7371 14.4637 16.4986 14.5625 16.25 14.5625H3.75C3.50136 14.5625 3.2629 14.4637 3.08709 14.2879C2.91127 14.1121 2.8125 13.8736 2.8125 13.625C2.8125 13.3764 2.91127 13.1379 3.08709 12.9621C3.2629 12.7863 3.50136 12.6875 3.75 12.6875H16.25C16.4986 12.6875 16.7371 12.7863 16.9129 12.9621C17.0887 13.1379 17.1875 13.3764 17.1875 13.625ZM0.985937 5.20391C1.06456 4.96818 1.23356 4.77332 1.45579 4.66213C1.67802 4.55094 1.9353 4.53253 2.17109 4.61094L3.10859 4.92344C3.22666 4.9613 3.33605 5.0222 3.43042 5.10262C3.52479 5.18304 3.60227 5.28137 3.65838 5.39194C3.71448 5.50251 3.7481 5.62311 3.75728 5.74676C3.76646 5.8704 3.75102 5.99465 3.71186 6.11229C3.6727 6.22993 3.61059 6.33863 3.52913 6.43211C3.44767 6.52558 3.34848 6.60197 3.2373 6.65685C3.12612 6.71172 3.00515 6.744 2.88141 6.75181C2.75767 6.75962 2.63361 6.74281 2.51641 6.70235L1.57891 6.38985C1.4621 6.35092 1.3541 6.28936 1.26108 6.2087C1.16806 6.12803 1.09185 6.02982 1.03678 5.9197C0.981718 5.80957 0.948887 5.68968 0.940163 5.56686C0.93144 5.44405 0.946994 5.32071 0.985937 5.20391ZM5.36094 1.42188C5.31834 1.30423 5.29973 1.17924 5.30619 1.05428C5.31266 0.92932 5.34407 0.806921 5.39858 0.694293C5.4531 0.581666 5.5296 0.481091 5.62359 0.398495C5.71759 0.315899 5.82716 0.252955 5.94586 0.213371C6.06456 0.173787 6.18998 0.158365 6.31473 0.168014C6.43949 0.177663 6.56105 0.212187 6.67225 0.269553C6.78345 0.326918 6.88204 0.405963 6.96221 0.502029C7.04239 0.598096 7.10252 0.709239 7.13906 0.828909L7.45156 1.76641C7.49416 1.88406 7.51277 2.00905 7.50631 2.13401C7.49984 2.25897 7.46843 2.38137 7.41392 2.49399C7.3594 2.60662 7.2829 2.7072 7.18891 2.78979C7.09491 2.87239 6.98534 2.93533 6.86664 2.97492C6.74794 3.0145 6.62252 3.02992 6.49777 3.02027C6.37301 3.01062 6.25145 2.9761 6.14025 2.91873C6.02905 2.86137 5.93046 2.78232 5.85029 2.68626C5.77011 2.59019 5.70998 2.47905 5.67344 2.35938L5.36094 1.42188ZM16.2984 6.10938C16.2595 5.99257 16.2439 5.86924 16.2527 5.74643C16.2614 5.62361 16.2942 5.50372 16.3493 5.39359C16.4043 5.28346 16.4806 5.18526 16.5736 5.10459C16.6666 5.02392 16.7746 4.96237 16.8914 4.92344L17.8289 4.61094C18.064 4.53557 18.3193 4.55595 18.5394 4.66765C18.7595 4.77935 18.9267 4.97336 19.0047 5.20756C19.0826 5.44177 19.0651 5.69727 18.9558 5.91862C18.8466 6.13996 18.6544 6.30929 18.4211 6.38985L17.4836 6.70235C17.2478 6.78076 16.9905 6.76235 16.7683 6.65116C16.5461 6.53997 16.3771 6.3451 16.2984 6.10938ZM12.5484 1.76641L12.8609 0.828909C12.8975 0.709239 12.9576 0.598096 13.0378 0.502029C13.118 0.405963 13.2166 0.326918 13.3278 0.269553C13.439 0.212187 13.5605 0.177663 13.6853 0.168014C13.81 0.158365 13.9354 0.173787 14.0541 0.213371C14.1728 0.252955 14.2824 0.315899 14.3764 0.398495C14.4704 0.481091 14.5469 0.581666 14.6014 0.694293C14.6559 0.806921 14.6873 0.92932 14.6938 1.05428C14.7003 1.17924 14.6817 1.30423 14.6391 1.42188L14.3266 2.35938C14.29 2.47905 14.2299 2.59019 14.1497 2.68626C14.0695 2.78232 13.9709 2.86137 13.8597 2.91873C13.7485 2.9761 13.627 3.01062 13.5022 3.02027C13.3775 3.02992 13.2521 3.0145 13.1334 2.97492C13.0147 2.93533 12.9051 2.87239 12.8111 2.78979C12.7171 2.7072 12.6406 2.60662 12.5861 2.49399C12.5316 2.38137 12.5002 2.25897 12.4937 2.13401C12.4872 2.00905 12.5058 1.88406 12.5484 1.76641Z" fill="#846F2E"/>
</svg>
