<svg width="19" height="17" viewBox="0 0 19 17" fill="none" xmlns="http://www.w3.org/2000/svg">
<path d="M12.1875 4.31252C11.7019 4.31256 11.2179 4.36893 10.7453 4.48048C10.6047 4.27509 10.448 4.08125 10.2765 3.9008L10.8679 3.05548C11.0106 2.85181 11.0665 2.5998 11.0234 2.3549C10.9802 2.11001 10.8415 1.89228 10.6379 1.74962C10.4342 1.60697 10.1822 1.55106 9.93729 1.59421C9.69239 1.63736 9.47466 1.77602 9.33201 1.9797L8.73982 2.82814C8.19054 2.58763 7.60013 2.45501 7.00076 2.43752L6.82107 1.42189C6.77356 1.18117 6.63358 0.96866 6.43116 0.829986C6.22874 0.691311 5.98002 0.637522 5.73838 0.680163C5.49675 0.722804 5.28147 0.858477 5.13874 1.05806C4.99601 1.25764 4.93722 1.50523 4.97498 1.74767L5.15466 2.7633C4.59756 2.98469 4.08809 3.3109 3.65388 3.72423L2.80544 3.1297C2.60177 2.98705 2.34976 2.93114 2.10486 2.97429C1.85997 3.01744 1.64224 3.1561 1.49958 3.35978C1.35693 3.56346 1.30102 3.81547 1.34417 4.06036C1.38732 4.30526 1.52598 4.52298 1.72966 4.66564L2.5781 5.25861C2.33694 5.8074 2.20429 6.39768 2.18748 6.99689L1.17185 7.17658C0.940788 7.21706 0.733296 7.34269 0.590335 7.52867C0.447373 7.71466 0.379331 7.94748 0.39964 8.18118C0.419949 8.41488 0.527133 8.63248 0.700034 8.79101C0.872935 8.94955 1.09899 9.0375 1.33357 9.03751C1.38855 9.03742 1.44343 9.03272 1.49763 9.02345L2.51326 8.84377C2.58995 9.03842 2.67973 9.22766 2.78201 9.41017C2.18889 10.029 1.79061 10.8084 1.63663 11.6516C1.48265 12.4948 1.57975 13.3646 1.91587 14.1531C2.25198 14.9416 2.81232 15.614 3.52728 16.0868C4.24224 16.5596 5.08033 16.8119 5.93748 16.8125H12.1875C13.8451 16.8125 15.4348 16.154 16.6069 14.9819C17.779 13.8098 18.4375 12.2201 18.4375 10.5625C18.4375 8.90491 17.779 7.3152 16.6069 6.1431C15.4348 4.971 13.8451 4.31252 12.1875 4.31252ZM6.87498 4.31252C7.26337 4.31283 7.6475 4.39358 8.00314 4.54969C8.35879 4.70579 8.67824 4.93387 8.94138 5.21955C7.82926 5.89405 6.95406 6.89729 6.43669 8.09064C6.27095 8.07184 6.10428 8.06245 5.93748 8.06252C5.39403 8.06246 4.85536 8.16394 4.34919 8.36173C4.13927 7.93297 4.04194 7.45782 4.06638 6.98104C4.09082 6.50427 4.23622 6.04156 4.48888 5.6365C4.74154 5.23145 5.09316 4.89737 5.5106 4.66574C5.92804 4.43411 6.39758 4.31255 6.87498 4.31252ZM12.1875 14.9375H5.93748C5.27443 14.9375 4.63855 14.6741 4.16971 14.2053C3.70087 13.7364 3.43748 13.1006 3.43748 12.4375C3.43748 11.7745 3.70087 11.1386 4.16971 10.6697C4.63855 10.2009 5.27443 9.93752 5.93748 9.93752H5.95935C5.95076 10.0235 5.94373 10.1094 5.93904 10.1953C5.92453 10.444 6.0094 10.6882 6.17496 10.8743C6.34051 11.0603 6.57321 11.173 6.82185 11.1875C7.07049 11.202 7.31471 11.1172 7.50078 10.9516C7.68685 10.786 7.79953 10.5533 7.81404 10.3047C7.83057 10.0144 7.87611 9.72653 7.94998 9.44533L7.96169 9.40236C8.17709 8.61485 8.60832 7.90323 9.20671 7.34781C9.8051 6.79239 10.5468 6.41529 11.3482 6.25906C12.1495 6.10284 12.9786 6.17372 13.7418 6.46371C14.505 6.75369 15.1719 7.25122 15.6674 7.90016C16.1628 8.54909 16.467 9.32359 16.5456 10.1362C16.6242 10.9489 16.474 11.7673 16.1121 12.4992C15.7502 13.231 15.191 13.8471 14.4975 14.278C13.804 14.7088 13.0039 14.9373 12.1875 14.9375Z" fill="#846F2E"/>
</svg>
